<svg version="1.1" id="Capa_1" xmlns="http://www.w3.org/2000/svg"
	xmlns:xlink="http://www.w3.org/1999/xlink" x="0" y="0" viewBox="0 0 80 52"
	style="enable-background:new 0 0 80 52" xml:space="preserve"><path d="M0 0h80v52H0V0z" style="fill:#fff"/><defs><path id="SVGID_1_" d="M54.7 0h13.7v50.7H54.7z"/></defs><clipPath id="SVGID_00000066508518857832386340000008875227574205648034_"><use xlink:href="#SVGID_1_" style="overflow:visible"/></clipPath><path d="M64.8 39.1v-37C64.8 0 63.2 0 62.4 0h-1.5c-.8 0-2.5 0-2.5 2.1V39c-1 .5-1.9 1.4-2.5 2.4-.6 1-1 2.2-1 3.4 0 1.2.3 2.2.9 3.2.6 1 1.4 1.8 2.3 2.4.2.2.5.2.8.2.4 0 .7-.1 1-.4.3-.3.5-.6.4-1.1v-4.4c0-.2 0-.4.2-.6.1-.2.3-.2.5-.2h1.4c.2 0 .4.1.6.2.1.1.2.4.2.6v4.4c0 .2 0 .4.1.5.1.2.2.3.3.5.3.3.6.4 1 .4.3 0 .5-.1.8-.2 1-.6 1.7-1.4 2.3-2.4.5-1 .8-2.1.8-3.2 0-1.2-.4-2.3-1-3.3-.7-1-1.6-1.8-2.7-2.3zm.1 9.3v-3.6c0-.7-.3-1.4-.7-1.9-.2-.2-.5-.4-.8-.6-.3-.1-.6-.2-1-.2H61c-.7 0-1.3.3-1.8.8-.2.2-.4.5-.5.9-.1.3-.2.7-.2 1v3.7c-.6-.4-1-1-1.3-1.6-.3-.6-.5-1.4-.5-2.1 0-.9.3-1.8.9-2.6.5-.8 1.2-1.4 2.1-1.7l.5-.2V1.8H63v38.4l.5.2c.9.4 1.6.9 2.1 1.7.5.8.8 1.7.9 2.6 0 .7-.1 1.4-.4 2-.2.7-.7 1.3-1.2 1.7z" style="clip-path:url(#SVGID_00000066508518857832386340000008875227574205648034_)"/><defs><path id="SVGID_00000150102641949144500160000010808271748638566323_" d="M10.8 0h11.9v52H10.8z"/></defs><clipPath id="SVGID_00000045591590393130689120000017342405549471660474_"><use xlink:href="#SVGID_00000150102641949144500160000010808271748638566323_" style="overflow:visible"/></clipPath><path d="M12.6 23.7h1.3v18.9l-.8 3.7 1.3 5.6H18l1.3-5.5-.5-3.8-.1-18.9h1.1c.2 0 .5 0 .7-.1.7-.3 1.1-.9 1.1-1.7v-1.8c0-.4-.1-.8-.4-1.1-.2-.3-.6-.6-1-.7V1.8c0-.5-.2-.9-.5-1.3-.2-.2-.4-.3-.6-.4-.1 0-.4-.1-.6-.1h-4.6c-.5 0-.9.2-1.2.6-.3.3-.5.8-.5 1.3v16.5c-.4.1-.7.3-1 .7-.2.3-.4.7-.4 1.1V22c0 .2 0 .5.1.7.1.2.2.4.4.6.2.2.4.3.6.4h.7zm4 26.5h-.9l-.9-3.8.8-3.5V23.7h1.3l.1 19 .5 3.6-.9 3.9zM14 1.8h4.5v16.4H14V1.8z" style="clip-path:url(#SVGID_00000045591590393130689120000017342405549471660474_)"/><path d="M35.5 1.4c0 .2-.1.5-.3.6-.2.2-.4.3-.6.3-.2 0-.5-.1-.6-.3-.2-.2-.3-.4-.3-.6 0-.2.1-.5.3-.6.2-.2.4-.3.6-.3.2 0 .5.1.6.3.2.1.3.3.3.6zm5.9 10.1c.2 0 .5-.1.6-.3.2-.2.3-.4.3-.6 0-.2-.1-.5-.3-.6-.2-.2-.4-.3-.6-.3h-3.6c-.2 0-.5.1-.6.3-.2.2-.3.4-.3.6 0 .2.1.5.3.6.2.2.4.3.6.3h3.6z"/><path d="M55.3 39.3V3.2c0-.7-.3-1.4-.8-1.9-.2-.3-.5-.5-.9-.6-.3-.1-.7-.2-1-.2H38.2c-.2 0-.5.1-.6.3-.2.2-.3.4-.3.6 0 .2.1.5.3.6.2.2.4.3.6.3h14.4c.2 0 .5.1.6.3.2.2.3.4.3.6v22.9H25.6V3.2c0-.5.4-.9.9-.9h4.3c.2 0 .5-.1.6-.3.2-.2.3-.4.3-.6 0-.2-.1-.5-.3-.6-.2-.2-.4-.3-.6-.3h-4.3c-.4 0-.7.1-1 .2-.7.3-1.2.8-1.5 1.5-.1.3-.2.7-.2 1v36.1c0 .5.4.9.9.9H31v3.2c0 .2.1.5.3.6.2.2.4.3.6.3h3.2V46c0 .3.1.5.3.6.2.2.4.3.6.3.2 0 .5-.1.6-.3.2-.2.3-.4.3-.6v-1.7h5.4V46c0 .2.1.5.3.6.2.2.4.3.6.3.2 0 .5-.1.6-.3.2-.2.3-.4.3-.6v-1.7h3.1c.2 0 .5-.1.6-.3.2-.2.3-.4.3-.6v-3.2h6.3c.2 0 .5-.1.6-.3.2-.1.3-.4.3-.6zm-15.7-3.7c-.2 0-.4 0-.5-.1-.2-.1-.3-.2-.4-.3-.1-.1-.2-.3-.3-.4-.1-.2-.1-.3-.1-.5s0-.4.1-.5c.1-.2.2-.3.3-.4.4-.4 1-.5 1.5-.3.2.1.3.2.4.3.3.3.4.6.4 1s-.1.7-.4 1c-.1.1-.3.2-.4.3-.3-.1-.4-.1-.6-.1z"/></svg>