<svg xmlns="http://www.w3.org/2000/svg" width="80" height="52" viewBox="0 0 60 39" version="1.2">
  <defs>
    <clipPath id="a">
      <path d="M10.5 0h39v33h-39Zm0 0" />
    </clipPath>
  </defs>
  <path style="fill:#fff;fill-opacity:1;stroke:none" d="M0 0h60v39H0z" />
  <path style="stroke:none;fill-rule:nonzero;fill:#100f0d;fill-opacity:1"
    d="M24.523 15.406c-.062.016-.117.035-.183.035h-.813c-.058 0-.109-.02-.164-.03a.792.792 0 0 1-.617-.641c-.008-.047-.027-.086-.027-.137v-.004c0-.27.14-.5.347-.645.032-.023.063-.05.102-.07a.806.806 0 0 1 .36-.094h.812c.215 0 .406.086.55.22.02.023.04.046.06.065.007.012.01.024.019.032.035.047.074.093.097.144.012.02.016.04.028.059.004.008 0 .015.004.027a.746.746 0 0 1 .054.262.803.803 0 0 1-.629.777ZM26.59 13.7a2.304 2.304 0 0 0-.266-.469 2.345 2.345 0 0 0-.578-.578 2.392 2.392 0 0 0-2.812 0c-.125.09-.243.188-.348.301a2.489 2.489 0 0 0-.492.746 2.57 2.57 0 0 0-.176.797c0 .047-.012.09-.012.133 0 1.016.625 1.887 1.508 2.25.059.027.121.039.18.058.199.063.406.106.62.118.044 0 .083.011.126.011.047 0 .094-.011.14-.015.215-.012.426-.055.622-.117.058-.024.12-.032.175-.059a2.434 2.434 0 0 0 1.496-2.246c0-.047-.007-.094-.011-.145a2.738 2.738 0 0 0-.172-.785M17.848 33.297v.812a.811.811 0 0 0 1.62 0v-.812c0-.45-.359-.813-.808-.813a.812.812 0 0 0-.812.813M23.527 30.863a.81.81 0 0 0-.808.809v.812a.811.811 0 1 0 1.62 0v-.812a.809.809 0 0 0-.812-.809M21.906 29.238h-.812a.812.812 0 1 0 0 1.625h.812a.812.812 0 1 0 0-1.625M21.094 34.918h-.813a.812.812 0 1 0 0 1.625h.813a.812.812 0 1 0 0-1.625M18.66 36.543a.812.812 0 0 0-.812.812v.813a.811.811 0 0 0 1.62 0v-.813c0-.449-.359-.812-.808-.812M15.414 14.629v.027c.238-.254.516-.48.84-.68 1.094-.69 2.75-1.085 4.465-1.144.054-.102.11-.207.168-.3-.836-1.419-1.418-3.083-1.418-4.391 0-.387.047-.739.125-1.059-2.508 1.582-4.18 4.371-4.18 7.547M17.035 34.918h-.808a.812.812 0 1 0 0 1.625h.808a.812.812 0 1 0 0-1.625M15.414 3.27h-.812a.811.811 0 1 0 0 1.621h.812a.811.811 0 1 0 0-1.621M14.602 25.992h.812a.811.811 0 1 0 0-1.621h-.812a.811.811 0 1 0 0 1.621M16.79 19.395c.026.043.077.113.116.168l.082.12c.02.024.032.044.051.067.29.387.75.906 1.344 1.219.73.386 1.449.34 2.199-.13.887-.558 1.625-1.507 2.164-2.48a4.061 4.061 0 0 1-2.465-3.73c0-.05.016-.106.016-.156-1.25.082-2.426.398-3.18.875-.75.472-1.097 1.101-1.066 1.925.027.672.297 1.317.523 1.743.082.16.16.289.215.379M24.93 5.734a5.593 5.593 0 0 0-1.18 0c-1.09.106-2.656.579-2.656 2.407 0 1.05.41 2.18.945 3.152a4.058 4.058 0 0 1 2.3-.719c.856 0 1.65.27 2.302.719.535-.973.945-2.102.945-3.152 0-1.829-1.563-2.301-2.656-2.407M23.527 29.238a.809.809 0 0 0 .813-.808v-.817a.81.81 0 0 0-1.621 0v.817a.81.81 0 0 0 .808.808M37.328 11.387h8.113a.812.812 0 1 0 0-1.625h-8.113a.813.813 0 1 0 0 1.625M37.328 4.89h8.113a.811.811 0 1 0 0-1.62h-8.113a.813.813 0 0 0-.816.812c0 .445.363.809.816.809M37.328 8.14h8.113a.812.812 0 1 0 0-1.624h-8.113a.813.813 0 1 0 0 1.625M37.328 14.629h8.113a.811.811 0 1 0 0-1.621h-8.113a.813.813 0 0 0-.816.812c0 .446.363.809.816.809M45.941 28.43c-.004.28-.058.55-.152.808-.027.075-.059.14-.09.211a2.485 2.485 0 0 1-.469.668l-.164.168-.41.406.883.883-1.148 1.149-.235-.239-.644-.644-1.149 1.148.88.883-1.145 1.145-.883-.88-.574.575c-.461.46-1.07.71-1.723.71a2.42 2.42 0 0 1-1.723-.71l-1.074-1.078-3.082-2.317a2.436 2.436 0 0 1-.965-1.773c-.008-.102.004-.203.012-.305a2.46 2.46 0 0 1 .18-.808c.12-.29.289-.555.515-.782l.032-.035 5.359-5.351c.5-.5 1.187-.762 1.89-.711.704.05 1.352.402 1.778.965l2.316 3.086 1.074 1.074a2.42 2.42 0 0 1 .61 1.058c.062.215.105.434.105.664 0 .008-.004.02-.004.032Zm-.68-6.317a8.912 8.912 0 0 0-6.312-2.61 8.905 8.905 0 0 0-6.312 2.61 8.903 8.903 0 0 0-2.61 6.317 8.875 8.875 0 0 0 2.61 6.309 8.896 8.896 0 0 0 7.168 2.57v.004c.261-.028.523-.067.777-.114.027-.008.055-.008.078-.011.215-.043.418-.098.625-.153.078-.023.16-.039.238-.062.164-.051.32-.11.477-.168.125-.043.246-.082.367-.133.113-.047.219-.102.328-.152.16-.075.325-.149.48-.23.04-.024.083-.052.126-.075l.058-.035c.196-.114.391-.223.575-.352.011-.004.02-.012.027-.02.016-.007.027-.019.043-.03.226-.153.441-.321.652-.497a8.593 8.593 0 0 0 1.645-1.8l.031-.044c.004-.007.012-.015.02-.023a10.847 10.847 0 0 0 .386-.64c.024-.04.047-.079.07-.122.087-.156.157-.316.235-.48.05-.11.105-.215.148-.328.051-.117.09-.246.137-.367.059-.157.117-.313.164-.473.028-.082.043-.16.063-.242.058-.207.11-.41.152-.621l.012-.082a8.27 8.27 0 0 0 .113-.778v.004-.047c.023-.27.04-.539.04-.808 0-.274-.017-.543-.04-.817a8.877 8.877 0 0 0-2.57-5.5" />
  <g clip-path="url(#a)">
    <path style="stroke:none;fill-rule:nonzero;fill:#100f0d;fill-opacity:1"
      d="M48.688.023H11.355a.812.812 0 0 0-.812.813V28.43c0 .37.254.668.598.765l-.57 2.282a.806.806 0 0 0 .784 1.007h4.872c.25 0 .484-.113.636-.312a.795.795 0 0 0 .149-.695l-.559-2.239h1.395a.813.813 0 0 0 0-1.625h-5.68V1.645h35.707V22.82c.316.5.59 1.024.813 1.559.53 1.281.8 2.648.804 4.016 0 .011.008.02.008.035V.836a.812.812 0 0 0-.813-.813" />
  </g>
  <path style="stroke:none;fill-rule:nonzero;fill:#100f0d;fill-opacity:1"
    d="M27.957 12.832c1.648.043 3.375.441 4.484 1.145.317.195.59.418.829.664v-.012c0-3.176-1.676-5.965-4.184-7.547.082.32.125.672.125 1.059 0 1.308-.578 2.972-1.418 4.39.062.094.113.196.164.301M25.965 29.238h-.813a.812.812 0 1 0 0 1.625h.813c.45 0 .808-.363.808-.812 0-.45-.359-.813-.808-.813M31.496 19.95c.18-.223.328-.43.41-.555.07-.114.172-.29.278-.508.007-.008.011-.02.02-.032a.736.736 0 0 1 .026-.058c.196-.414.391-.957.41-1.524.036-.824-.312-1.453-1.062-1.925-.867-.547-2.062-.805-3.195-.875 0 .05.015.105.015.156a4.066 4.066 0 0 1-2.453 3.726c.54.973 1.278 1.922 2.168 2.485.75.469 1.469.515 2.2.129.5-.262.89-.668 1.183-1.02M24.348 18.785c-.746 1.422-1.82 2.746-2.903 3.43-.316.195-.64.348-.965.453a8.836 8.836 0 0 0 3.86.89 8.912 8.912 0 0 0 3.867-.89 4.626 4.626 0 0 1-.957-.453c-1.082-.684-2.156-2.008-2.902-3.43M36.625 29.547a.821.821 0 0 1-.02-1.117c.008-.012.012-.024.02-.032a.809.809 0 0 1 1.145 0l1.148 1.149.309-.309.812-.808.027-.032-.78-.785-.368-.363a.813.813 0 0 1 0-1.148.813.813 0 0 1 1.148 0l1.149 1.148 1.226-1.227-1.902-2.53a.785.785 0 0 0-.59-.321.783.783 0 0 0-.629.234l-4.21 4.207-.813.817-.367.367a.768.768 0 0 0-.211.441c-.012.063-.032.125-.028.192.02.238.133.449.325.59l2.527 1.902 1.227-1.23-1.145-1.145M34.078 4.89a.811.811 0 1 0 0-1.62h-.808a.811.811 0 1 0 0 1.621h.808M43.875 27.613l-.336-.332-.027-.031-.367.363-.813.817-.184.18-.359.363-.27.265-.484.489-1.543 1.539-1.722 1.722.574.575a.828.828 0 0 0 1.148 0l1.328-1.329.567-.562 2.699-2.7a.815.815 0 0 0 .23-.542c0-.012.004-.024.004-.032a.82.82 0 0 0-.234-.574l-.211-.21" />
</svg>