<svg xmlns="http://www.w3.org/2000/svg" width="80" height="52" viewBox="0 0 60 39" version="1.2">
  <defs>
    <clipPath id="a">
      <path d="M35 .445h14V15H35Zm0 0" />
    </clipPath>
    <clipPath id="b">
      <path d="M24 37h3v1.695h-3Zm0 0" />
    </clipPath>
    <clipPath id="c">
      <path d="M25 .445h2V3h-2Zm0 0" />
    </clipPath>
    <clipPath id="d">
      <path d="M31 37h3v1.695h-3Zm0 0" />
    </clipPath>
    <clipPath id="e">
      <path d="M29 37h2v1.695h-2Zm0 0" />
    </clipPath>
    <clipPath id="f">
      <path d="M29 .445h3V2h-3Zm0 0" />
    </clipPath>
    <clipPath id="g">
      <path d="M27 37h2v1.695h-2Zm0 0" />
    </clipPath>
    <clipPath id="h">
      <path d="M27 .445h2V2h-2Zm0 0" />
    </clipPath>
    <clipPath id="i">
      <path d="M33 36h3v2.695h-3Zm0 0" />
    </clipPath>
    <clipPath id="j">
      <path d="M31 .445h3V3h-3Zm0 0" />
    </clipPath>
    <clipPath id="k">
      <path d="M11 .445h10V15H11Zm0 0" />
    </clipPath>
    <clipPath id="l">
      <path d="M10.332 25H24v13.695H10.332Zm0 0" />
    </clipPath>
    <clipPath id="m">
      <path d="M39 25h10v13.695H39Zm0 0" />
    </clipPath>
  </defs>
  <path style="fill:#fff;fill-opacity:1;stroke:none" d="M0 0h60v39H0z" />
  <path style="stroke:none;fill-rule:nonzero;fill:#000;fill-opacity:1"
    d="M37.305 17.656h-.73a7.357 7.357 0 0 0-.614-1.496l.527-.539a1.45 1.45 0 0 0 .38-1.078 1.652 1.652 0 0 0-.47-1.047l-.671-.687c-.582-.598-1.516-.63-2.07-.059l-.528.54a6.3 6.3 0 0 0-1.461-.63v-.781c0-.809-.672-1.465-1.516-1.465h-.937c-.844 0-1.516.656-1.516 1.465v.781c-.496.149-.996.36-1.46.63l-.528-.54c-.555-.57-1.488-.54-2.07.09l-.672.687a1.786 1.786 0 0 0-.469 1.047c-.027.418.117.809.379 1.078l.527.54a7.057 7.057 0 0 0-.613 1.495h-.73c-.79 0-1.403.688-1.403 1.555v.961c0 .867.645 1.555 1.402 1.555h.817c.148.508.351 1.02.613 1.496l-.523.539c-.266.27-.41.687-.383 1.078.031.39.176.75.469 1.047l.672.687c.585.602 1.52.63 2.074.09l.523-.539c.469.27.938.48 1.461.63v.78c0 .805.672 1.465 1.52 1.465h.875c.847 0 1.52-.66 1.52-1.465v-.78c.495-.15.991-.36 1.46-.63l.524.54c.554.57 1.488.538 2.074-.09l.672-.688c.261-.297.437-.656.465-1.047a1.383 1.383 0 0 0-.38-1.078l-.523-.54c.262-.476.465-.987.613-1.495h.73c.786 0 1.4-.688 1.4-1.555v-.96c-.028-.9-.641-1.587-1.43-1.587Zm.261 2.516c0 .21-.144.36-.261.36h-1.196c-.265 0-.5.21-.554.476a6.318 6.318 0 0 1-.79 2.008.599.599 0 0 0 .087.746l.847.87c.028.028.028.118.028.15 0 .09-.059.179-.118.269l-.668.687c-.148.149-.351.149-.441.09l-.844-.867a.569.569 0 0 0-.73-.09c-.586.39-1.258.66-1.93.84a.604.604 0 0 0-.465.598v1.226c0 .121-.148.27-.351.27h-.934c-.203 0-.351-.149-.351-.27v-1.258c0-.27-.204-.539-.465-.597-.703-.149-1.344-.45-1.93-.84a.58.58 0 0 0-.73.09l-.848.867c-.086.09-.29.09-.438-.086l-.672-.691a.372.372 0 0 1-.113-.27c0-.059 0-.117.055-.18l.848-.867a.6.6 0 0 0 .09-.746 5.997 5.997 0 0 1-.79-1.95c-.058-.265-.293-.476-.554-.476h-1.2c-.117 0-.261-.148-.261-.36v-.956c0-.211.144-.36.261-.36h1.2c.261 0 .496-.21.554-.48.145-.719.41-1.375.79-2.004a.605.605 0 0 0-.09-.75l-.848-.867c-.055-.059-.055-.121-.055-.18 0-.09.055-.18.113-.27l.672-.687c.149-.152.325-.18.438-.09l.848.868c.207.21.496.238.73.09.586-.391 1.258-.66 1.93-.84a.604.604 0 0 0 .465-.598V11.82c0-.12.148-.27.351-.27h.934c.203 0 .351.15.351.27v1.29c0 .265.203.535.465.597a5.07 5.07 0 0 1 1.93.836.564.564 0 0 0 .73-.09l.844-.867c.09-.09.293-.059.441.09l.668.687c.09.09.118.18.118.27 0 .062 0 .12-.059.18l-.844.87a.6.6 0 0 0-.09.747c.38.629.645 1.289.79 2.004.058.27.292.48.554.48h1.2c.113 0 .261.148.261.36v.898Zm0 0" />
  <path style="stroke:none;fill-rule:nonzero;fill:#000;fill-opacity:1"
    d="M29.71 16.102c-1.925 0-3.472 1.617-3.472 3.59 0 1.976 1.547 3.593 3.473 3.593 1.93 0 3.477-1.617 3.477-3.594 0-1.972-1.547-3.59-3.477-3.59Zm0 5.984c-1.28 0-2.304-1.078-2.304-2.395 0-1.316 1.051-2.394 2.305-2.394 1.285 0 2.309 1.078 2.309 2.394 0 1.317-1.024 2.395-2.31 2.395Zm0 0" />
  <g clip-path="url(#a)">
    <path style="stroke:none;fill-rule:nonzero;fill:#000;fill-opacity:1"
      d="M43.816 4.04c.176-.72.176-1.47-.175-2.126C43.145.984 42.27.535 41.395.535c-.586 0-1.2.211-1.723.57-1.434 1.016-.82 2.247-.82 2.247.41.714 1.082 1.285 1.664 2.093-.145.121-.29.239-.407.39-.234-.151-.527-.269-.586-.331a4.813 4.813 0 0 0-.906-.36 2.734 2.734 0 0 0-.844-.117c-.41 0-.847.09-1.199.297-1.52.867-1.664 2.785-.789 4.102.528.808 1.11.988 1.55.988.38 0 .642-.148.642-.148.699-.422 1.253-1.11 2.015-1.707.117.148.235.296.38.418-.145.238-.263.539-.321.597-.149.301-.266.602-.352.93-.176.719-.176 1.465.176 2.125.496.926 1.371 1.375 2.25 1.375.582 0 1.195-.207 1.723-.566 1.43-1.02.816-2.247.816-2.247-.41-.718-1.082-1.285-1.664-2.093.145-.121.293-.243.406-.391.235.148.528.27.586.328.293.152.582.27.906.36.262.062.555.12.844.12.41 0 .848-.09 1.2-.3 1.519-.867 1.663-2.781.788-4.098-.527-.781-1.109-.96-1.546-.96-.383 0-.645.152-.645.152-.7.418-1.254 1.105-2.016 1.703-.117-.149-.23-.297-.378-.418.148-.239.261-.54.32-.598.148-.328.265-.629.351-.957Zm-5.52 4.456c-.32.3-.581.57-.847.719h-.113c-.207 0-.41-.149-.586-.45-.293-.445-.41-.984-.293-1.464a1.4 1.4 0 0 1 .703-.93c.176-.09.38-.148.64-.148.177 0 .352.03.555.09.208.058.41.148.672.269l.09.031c.086.028.145.09.203.117v.872c-.41.296-.73.597-1.023.894Zm1.579-5.684c-.059-.18 0-.421.41-.718.32-.242.7-.36 1.078-.36.38 0 .907.118 1.258.746.23.422.145.961.086 1.227-.059.211-.145.422-.262.691l-.03.09c-.028.09-.087.149-.118.207h-.844c-.293-.386-.586-.718-.848-1.047a4.66 4.66 0 0 1-.73-.836Zm1.898 3.442c.555 0 1.02.45 1.02 1.016a1.02 1.02 0 0 1-2.043 0c0-.567.438-1.016 1.023-1.016Zm1.868 5.476c.03.06.058.36-.438.72-.32.238-.7.359-1.078.359-.383 0-.906-.121-1.258-.75-.234-.418-.144-.957-.086-1.227.059-.207.145-.418.262-.687l.027-.09c.032-.09.09-.149.117-.211h.848c.293.39.586.719.848 1.05.351.297.582.567.758.836Zm1.578-5.687c.32-.297.582-.54.847-.719.028 0 .059-.027.118-.027.203 0 .379.148.582.45.293.444.41.983.293 1.464-.09.39-.32.719-.704.93a1.35 1.35 0 0 1-.64.148c-.176 0-.352-.031-.555-.09a4.803 4.803 0 0 1-.672-.27l-.086-.03c-.09-.028-.148-.09-.207-.118v-.87c.41-.27.73-.567 1.024-.868Zm0 0" />
  </g>
  <path style="stroke:none;fill-rule:nonzero;fill:#000;fill-opacity:1"
    d="M12.105 25.77c.086.238.32.418.555.418.059 0 .117 0 .176-.032.289-.09.465-.445.379-.746l-.09-.27c-.086-.328-.406-.48-.727-.39-.293.09-.468.45-.382.75.03.059.058.148.09.27ZM23.55 1.613a3.4 3.4 0 0 1-.292.09.616.616 0 0 0-.348.777c.086.243.32.391.555.391.058 0 .144 0 .203-.031a6.91 6.91 0 0 0 .262-.09.613.613 0 0 0 .351-.777c-.117-.328-.41-.45-.73-.36ZM11.52 23.375a.565.565 0 0 0 .554.477h.117a.598.598 0 0 0 .47-.688c-.032-.09-.032-.18-.06-.27a.57.57 0 0 0-.671-.476.584.584 0 0 0-.47.687c0 .09.032.18.06.27ZM21.36 2.57c-.087.063-.172.09-.262.153a.623.623 0 0 0-.235.804c.117.211.293.332.528.332a.8.8 0 0 0 .261-.062c.09-.027.176-.09.235-.117a.604.604 0 0 0 .261-.809c-.144-.328-.496-.45-.789-.3ZM46.008 10.504c-.059-.09-.09-.18-.149-.27a.567.567 0 0 0-.785-.238c-.293.149-.383.54-.207.809.059.09.09.175.149.238.113.207.289.297.496.297.086 0 .175-.027.289-.059.265-.12.383-.476.207-.777ZM11.2 20.95c.03.327.26.57.585.57h.027a.625.625 0 0 0 .555-.66c0-.09 0-.18-.027-.297a.614.614 0 0 0-.613-.57.616.616 0 0 0-.555.628c.027.121.027.238.027.328ZM47.582 18.168h.059a.56.56 0 0 0 .496-.66c0-.09-.028-.211-.028-.301a.554.554 0 0 0-.644-.508.56.56 0 0 0-.496.66c0 .09.031.18.031.297.059.27.293.512.582.512ZM46.531 15.082c.032.09.059.18.059.27.058.27.293.449.555.449.058 0 .09 0 .148-.028a.581.581 0 0 0 .406-.718c-.027-.09-.058-.211-.086-.301-.09-.328-.41-.508-.703-.418-.262.09-.437.418-.379.746Zm0 0" />
  <g clip-path="url(#b)">
    <path style="stroke:none;fill-rule:nonzero;fill:#000;fill-opacity:1"
      d="M25.86 37.203c-.09-.031-.176-.031-.266-.058-.32-.09-.614.117-.7.449a.572.572 0 0 0 .438.715c.09.03.203.062.293.062h.117c.262 0 .496-.18.555-.48.086-.297-.117-.598-.438-.688Zm0 0" />
  </g>
  <path style="stroke:none;fill-rule:nonzero;fill:#000;fill-opacity:1"
    d="M11.23 18.195c0 .09 0 .211-.03.301-.028.328.234.629.554.629h.031c.29 0 .555-.242.582-.57 0-.09 0-.18.031-.297.028-.332-.207-.63-.527-.63-.351 0-.613.24-.64.567ZM12.074 16.79c.266 0 .528-.212.555-.481.031-.118.059-.207.059-.297a.636.636 0 0 0-.438-.719.617.617 0 0 0-.7.45c-.03.089-.03.206-.058.296-.058.36.145.66.465.719.031 0 .09.031.117.031ZM20.047 4.758c.203-.211.262-.54.09-.781-.176-.27-.559-.329-.82-.149a1.745 1.745 0 0 0-.235.18c-.027.031-.059.058-.086.09.41.09.758.3 1.05.66Zm0 0" />
  <g clip-path="url(#c)">
    <path style="stroke:none;fill-rule:nonzero;fill:#000;fill-opacity:1"
      d="M25.86.957c-.09.027-.208.027-.294.059-.32.058-.496.386-.437.718.058.27.293.477.555.477.027 0 .086 0 .117-.027.086-.032.176-.032.262-.063a.571.571 0 0 0 .437-.719c-.027-.297-.352-.507-.64-.445Zm0 0" />
  </g>
  <path style="stroke:none;fill-rule:nonzero;fill:#000;fill-opacity:1"
    d="M47.7 19.035c-.321 0-.583.27-.583.598v.359c0 .328.262.598.582.598.324 0 .586-.27.586-.598v-.36a.593.593 0 0 0-.586-.597ZM47.613 24.84c.028-.09.059-.207.086-.297.09-.332-.117-.66-.406-.719-.324-.09-.613.117-.703.418-.028.09-.059.18-.086.27a.6.6 0 0 0 .406.75c.059 0 .117.027.149.027.234 0 .464-.18.554-.45ZM48.078 22.445c0-.09.031-.207.031-.297.028-.332-.175-.628-.496-.66-.32-.031-.613.18-.644.508 0 .09-.028.18-.028.3a.602.602 0 0 0 .496.688h.086a.595.595 0 0 0 .555-.539Zm0 0" />
  <g clip-path="url(#d)">
    <path style="stroke:none;fill-rule:nonzero;fill:#000;fill-opacity:1"
      d="M32.516 37.414c-.086.027-.176.027-.262.027a.626.626 0 0 0-.496.688c.027.3.289.512.582.512h.09a.96.96 0 0 0 .289-.063.58.58 0 0 0 .468-.687.618.618 0 0 0-.671-.477Zm0 0" />
  </g>
  <g clip-path="url(#e)">
    <path style="stroke:none;fill-rule:nonzero;fill:#000;fill-opacity:1"
      d="M30.297 37.652h-.293c-.32 0-.582.27-.582.598 0 .328.262.598.582.598h.293c.32 0 .582-.297.555-.63a.513.513 0 0 0-.555-.566Zm0 0" />
  </g>
  <g clip-path="url(#f)">
    <path style="stroke:none;fill-rule:nonzero;fill:#000;fill-opacity:1"
      d="M30.266.535a.569.569 0 0 0-.582.57c0 .329.234.598.554.63h.321c.32 0 .554-.243.586-.57a.619.619 0 0 0-.555-.63c-.117.031-.207 0-.324 0Zm0 0" />
  </g>
  <g clip-path="url(#g)">
    <path style="stroke:none;fill-rule:nonzero;fill:#000;fill-opacity:1"
      d="M28.078 37.563c-.09 0-.176-.032-.293-.032a.594.594 0 0 0-.64.54.6.6 0 0 0 .523.66c.09 0 .207.027.293.027h.059a.598.598 0 0 0 .582-.54.597.597 0 0 0-.524-.656Zm0 0" />
  </g>
  <g clip-path="url(#h)">
    <path style="stroke:none;fill-rule:nonzero;fill:#000;fill-opacity:1"
      d="M27.96 1.824h.06c.085 0 .175-.031.293-.031a.598.598 0 0 0 .523-.66c-.027-.328-.32-.567-.613-.535-.086 0-.203.027-.293.027a.6.6 0 0 0-.524.66c0 .297.262.54.555.54Zm0 0" />
  </g>
  <path style="stroke:none;fill-rule:nonzero;fill:#000;fill-opacity:1"
    d="M34.648 2.453c.086.027.176.059.262.09.059.027.117.027.176.027a.584.584 0 0 0 .555-.418c.086-.328-.086-.66-.38-.75-.09-.027-.175-.058-.292-.09a.584.584 0 0 0-.73.422.586.586 0 0 0 .41.72ZM36.781 36.125c-.09.031-.176.09-.265.121-.293.117-.438.477-.32.777.085.239.32.36.527.36.086 0 .144-.031.23-.059.09-.031.176-.09.266-.12a.575.575 0 0 0 .289-.778.51.51 0 0 0-.727-.301Zm0 0" />
  <g clip-path="url(#i)">
    <path style="stroke:none;fill-rule:nonzero;fill:#000;fill-opacity:1"
      d="M34.676 36.902a6.909 6.909 0 0 1-.262.09.606.606 0 0 0-.41.75c.059.27.293.45.555.45.058 0 .117 0 .148-.032.086-.031.203-.058.293-.09a.562.562 0 0 0 .379-.746c-.117-.332-.379-.511-.703-.422Zm0 0" />
  </g>
  <g clip-path="url(#j)">
    <path style="stroke:none;fill-rule:nonzero;fill:#000;fill-opacity:1"
      d="M32.926.836c-.09-.031-.207-.031-.293-.059-.32-.062-.613.18-.672.508a.602.602 0 0 0 .496.688c.09 0 .176.03.262.058h.09c.261 0 .523-.207.582-.508.058-.328-.145-.656-.465-.687Zm0 0" />
  </g>
  <g clip-path="url(#k)">
    <path style="stroke:none;fill-rule:nonzero;fill:#000;fill-opacity:1"
      d="M15.754 14.305c1.14 0 2.309-.418 3.156-1.258 1.606-1.586 1.985-3.86 1.02-6.047a13.656 13.656 0 0 0-.7-1.344c-.261-.449-.644-.422-.73-.422-.145.032-.469.121-.613.602-.032.117-.059.176-.09.266-.027-.176-.027-.477-.027-.688v-.418c-.086-1.707-.758-3.262-1.782-4.219-.351-.332-.699-.242-.816-.18-.117.06-.41.239-.41.747 0 .328-.145 1.347-1.489 3.234-1.285 1.824-2.89 4.578-1.695 7.211.555 1.23 1.754 2.156 3.215 2.426.348.058.64.09.96.09Zm.148-12.961h-.586Zm-2.66 10.777a3.366 3.366 0 0 1-.582-.84c-.965-2.066.438-4.398 1.547-6.015.906-1.258 1.344-2.246 1.547-2.965.496.75.789 1.707.848 2.754v.3c-.028.598-.028 1.735.964 2.036.23.058.497.058.7-.09.144-.09.261-.18.379-.36.09.149.148.329.234.508.7 1.586.527 3.176-.469 4.371.09-.57 0-1.195-.262-1.797-.117-.27-.234-.507-.351-.746-.172-.3-.465-.39-.668-.359h-.059c-.09-.898-.441-1.738-.965-2.246-.203-.211-.468-.27-.73-.149-.086.09-.379.27-.379.72 0 .116-.059.597-.703 1.523-.582.87-1.254 2.097-1.05 3.355Zm1.258.207c-.32-.719-.09-1.644.758-2.871.234-.332.41-.66.555-.96.058.21.117.448.117.69v.149c0 .328-.028 1.11.672 1.348.175.058.351.058.496-.032.293.778.144 1.528-.352 2.067-.64.656-1.898.449-2.246-.39Zm0 0" />
  </g>
  <path style="stroke:none;fill-rule:nonzero;fill:#000;fill-opacity:1"
    d="M23.727 36.543c-.028 0-.028 0-.059-.027-.293.238-.64.386-.992.418a.55.55 0 0 0 .379.597c.086.032.175.063.293.121a.461.461 0 0 0 .203.032.6.6 0 0 0 .554-.391c.09-.27-.058-.629-.378-.75Zm0 0" />
  <g clip-path="url(#l)">
    <path style="stroke:none;fill-rule:nonzero;fill:#000;fill-opacity:1"
      d="M23.055 35.496a.59.59 0 0 0-.203-.809l-.907-.539.875-.09c.32-.027.555-.328.528-.656-.032-.328-.32-.57-.614-.539l-2.511.211-1.813-1.11 1.813-1.109 2.511.211h.059a.598.598 0 0 0 .582-.539c.031-.328-.203-.629-.523-.656l-.88-.09.821-.511c.262-.18.379-.54.203-.81-.176-.296-.523-.386-.789-.206l-.902.539.32-.84a.615.615 0 0 0-.32-.777.59.59 0 0 0-.762.328l-.906 2.277-2.012 1.285v-2.214l1.605-2.036c.204-.27.176-.628-.09-.84a.56.56 0 0 0-.816.09l-.699.899V25.68a.595.595 0 0 0-.586-.598c-.32 0-.582.27-.582.598v1.285l-.703-.899c-.203-.27-.555-.296-.816-.09-.235.212-.293.602-.09.84l1.609 2.036v1.914l-1.898-1.164-.82-2.067a.582.582 0 0 0-.759-.328c-.293.117-.437.477-.32.777l.235.63-.555-.333c-.266-.176-.645-.058-.79.211-.175.301-.058.66.204.809l.789.48-1.11.09c-.32.027-.554.328-.527.656.031.301.293.54.586.54h.059l2.683-.239h.032l1.84 1.137-1.813 1.11-2.508-.212a.55.55 0 0 0-.613.54c-.031.327.203.628.523.656l.875.09-.902.511c-.266.18-.383.54-.207.809.117.176.293.297.496.297.09 0 .207-.032.293-.09l.992-.598-.32.836c-.117.3.031.66.32.781a.541.541 0 0 0 .207.028c.23 0 .438-.149.524-.36l.906-2.273 1.578-.93v2.04l-1.61 2.034c-.202.27-.171.63.09.836.235.211.614.18.817-.09l.703-.898v1.168c0 .328.262.598.582.598.32 0 .586-.27.586-.598v-1.168l.7.898c.116.149.292.211.437.211a.523.523 0 0 0 .379-.148c.234-.211.293-.602.09-.84l-1.606-2.035v-2.305l1.984 1.227.907 2.273c.086.242.32.36.523.36.059 0 .148 0 .207-.028a.618.618 0 0 0 .32-.78l-.32-.837.992.598c.086.058.203.09.293.09.203.03.407-.09.524-.27Zm0 0" />
  </g>
  <path style="stroke:none;fill-rule:nonzero;fill:#000;fill-opacity:1"
    d="M38.297 36.004c.09.152.207.242.351.27-.086-.329-.175-.688-.203-1.047-.207.21-.293.539-.148.777ZM46.824 27.176c.031-.09.086-.18.117-.27.118-.3-.03-.66-.32-.777-.266-.121-.555 0-.703.207.148.36.352.781.586 1.168a.688.688 0 0 0 .32-.328Zm0 0" />
  <g clip-path="url(#m)">
    <path style="stroke:none;fill-rule:nonzero;fill:#000;fill-opacity:1"
      d="M44.605 26.04c-.117-.419-.234-.958-.757-.958-.528 0-.645.54-.762.895-.293 1.078-.906 2.128-1.52 3.265-1.02 1.824-2.101 3.742-1.925 5.867.144 1.946 1.578 3.38 3.62 3.68.235.031.47.059.7.059 1.61 0 3.36-.746 4.062-2.602.934-2.516-.5-4.851-1.726-6.887-.758-1.164-1.43-2.242-1.692-3.32Zm2.305 9.784c-.555 1.5-2.219 1.977-3.504 1.797-1.195-.18-2.508-.957-2.625-2.601-.148-1.739.844-3.473 1.782-5.149.464-.808.933-1.648 1.285-2.516.379.899.902 1.797 1.43 2.633 1.195 2.008 2.335 3.864 1.632 5.836Zm0 0" />
  </g>
  <path style="stroke:none;fill-rule:nonzero;fill:#000;fill-opacity:1"
    d="M44.195 32.055a.63.63 0 0 0-.175.84s.789 1.343.351 2.453a.615.615 0 0 0 .32.777.532.532 0 0 0 .235.059.579.579 0 0 0 .527-.36c.672-1.703-.41-3.469-.437-3.531-.176-.328-.555-.418-.82-.238ZM37.48 2.273c-.09-.03-.175-.09-.261-.12-.293-.122-.645 0-.762.3-.117.297 0 .656.293.777.086.032.176.09.262.122.09.027.148.058.234.058a.607.607 0 0 0 .379-.148c-.059-.27-.059-.602-.027-.93-.059 0-.09-.031-.118-.059ZM45.95 13.168c.085.238.32.387.554.387.059 0 .144 0 .203-.028a.612.612 0 0 0 .32-.777 1.94 1.94 0 0 0-.117-.3.582.582 0 0 0-.758-.329.45.45 0 0 0-.234.18c-.027.148-.059.328-.117.508 0 .03.031.058.031.12.027.06.086.15.117.239Zm0 0" />
</svg>