<?xml version="1.0" encoding="UTF-8"?>
<svg id="Capa_2" data-name="Capa 2" xmlns="http://www.w3.org/2000/svg" xmlns:xlink="http://www.w3.org/1999/xlink" viewBox="0 0 377.77 72.94">
  <defs>
    <style>
      .cls-1, .cls-2 {
        fill: #fff;
      }

      .cls-3 {
        fill: #f0eeef;
      }

      .cls-3, .cls-2, .cls-4, .cls-5 {
        fill-rule: evenodd;
      }

      .cls-6 {
        clip-path: url(#clippath-2);
      }

      .cls-4 {
        fill: #4493d6;
      }

      .cls-7 {
        clip-path: url(#clippath-1);
      }

      .cls-8 {
        clip-path: url(#clippath-4);
      }

      .cls-9 {
        clip-path: url(#clippath);
      }

      .cls-10 {
        fill: none;
      }

      .cls-5 {
        fill: #00bf63;
      }

      .cls-11 {
        clip-path: url(#clippath-3);
      }

      .cls-12 {
        fill: #51aee5;
      }

      .cls-13 {
        fill: url(#Degradado_sin_nombre);
      }
    </style>
    <clipPath id="clippath">
      <rect class="cls-10" x="52.53" y="63.13" width="1.33" height="1.21"/>
    </clipPath>
    <clipPath id="clippath-1">
      <path class="cls-10" d="m53.57,63.27c-.09.04-.18.07-.27.12.09-.05.18-.08.27-.13h0"/>
    </clipPath>
    <clipPath id="clippath-2">
      <polygon class="cls-10" points="53.64 63.31 53.41 63.13 53.25 63.34 53.47 63.52 53.64 63.31"/>
    </clipPath>
    <linearGradient id="Degradado_sin_nombre" data-name="Degradado sin nombre" x1="-706.17" y1="1913.43" x2="-705.16" y2="1913.43" gradientTransform="translate(-453.18 -98.9) rotate(128) scale(.26 -.26)" gradientUnits="userSpaceOnUse">
      <stop offset="0" stop-color="#3aaa54"/>
      <stop offset=".03" stop-color="#3aaa53"/>
      <stop offset=".06" stop-color="#3bab52"/>
      <stop offset=".08" stop-color="#3cab52"/>
      <stop offset=".09" stop-color="#3cac51"/>
      <stop offset=".11" stop-color="#3cac51"/>
      <stop offset=".12" stop-color="#3dac50"/>
      <stop offset=".14" stop-color="#3dac50"/>
      <stop offset=".15" stop-color="#3dad50"/>
      <stop offset=".16" stop-color="#3dad4f"/>
      <stop offset=".17" stop-color="#3dad4e"/>
      <stop offset=".19" stop-color="#3eae4e"/>
      <stop offset=".2" stop-color="#3eae4d"/>
      <stop offset=".22" stop-color="#3fae4d"/>
      <stop offset=".23" stop-color="#3faf4d"/>
      <stop offset=".25" stop-color="#3faf4c"/>
      <stop offset=".27" stop-color="#3fb04c"/>
      <stop offset=".28" stop-color="#40b04c"/>
      <stop offset=".31" stop-color="#40b04b"/>
      <stop offset=".33" stop-color="#40b14b"/>
      <stop offset=".34" stop-color="#41b14a"/>
      <stop offset=".36" stop-color="#41b14a"/>
      <stop offset=".38" stop-color="#42b249"/>
      <stop offset=".39" stop-color="#42b249"/>
      <stop offset=".41" stop-color="#43b248"/>
      <stop offset=".42" stop-color="#43b348"/>
      <stop offset=".44" stop-color="#43b347"/>
      <stop offset=".45" stop-color="#44b447"/>
      <stop offset=".47" stop-color="#44b446"/>
      <stop offset=".48" stop-color="#45b446"/>
      <stop offset=".49" stop-color="#45b445"/>
      <stop offset=".5" stop-color="#45b445"/>
      <stop offset=".52" stop-color="#46b544"/>
      <stop offset=".53" stop-color="#46b544"/>
      <stop offset=".55" stop-color="#46b543"/>
      <stop offset=".56" stop-color="#46b643"/>
      <stop offset=".58" stop-color="#46b643"/>
      <stop offset=".59" stop-color="#47b642"/>
      <stop offset=".6" stop-color="#48b641"/>
      <stop offset=".61" stop-color="#48b641"/>
      <stop offset=".62" stop-color="#48b740"/>
      <stop offset=".64" stop-color="#49b740"/>
      <stop offset=".66" stop-color="#49b83f"/>
      <stop offset=".67" stop-color="#49b83f"/>
      <stop offset=".69" stop-color="#4ab83e"/>
      <stop offset=".7" stop-color="#4ab83e"/>
      <stop offset=".72" stop-color="#4ab93d"/>
      <stop offset=".75" stop-color="#4bb93d"/>
      <stop offset=".76" stop-color="#4bba3c"/>
      <stop offset=".77" stop-color="#4bba3c"/>
      <stop offset=".78" stop-color="#4cba3b"/>
      <stop offset=".8" stop-color="#4cba3b"/>
      <stop offset=".81" stop-color="#4dbb3b"/>
      <stop offset=".84" stop-color="#4dbb3a"/>
      <stop offset=".86" stop-color="#4ebb39"/>
      <stop offset=".88" stop-color="#4ebb39"/>
      <stop offset=".88" stop-color="#4fbc39"/>
      <stop offset=".89" stop-color="#4fbc39"/>
      <stop offset=".91" stop-color="#50bc38"/>
      <stop offset=".92" stop-color="#50bd38"/>
      <stop offset=".94" stop-color="#51bd37"/>
      <stop offset=".97" stop-color="#52bd37"/>
      <stop offset="1" stop-color="#53be36"/>
    </linearGradient>
    <clipPath id="clippath-3">
      <rect class="cls-10" x="8.53" width="73.33" height="44.68"/>
    </clipPath>
    <clipPath id="clippath-4">
      <rect class="cls-10" y="27.92" width="72.53" height="45.02"/>
    </clipPath>
  </defs>
  <g id="Capa_1-2" data-name="Capa 1">
    <path class="cls-2" d="m35.08,5.1c17.31-3.05,33.82,8.51,36.88,25.82s-8.51,33.82-25.82,36.87c-17.31,3.06-33.82-8.51-36.88-25.82C6.21,24.67,17.77,8.16,35.08,5.1"/>
    <path class="cls-3" d="m67.74,45.8c-.08.25-.17.49-.26.72-.28.74-.58,1.48-.92,2.21-.34.71-.7,1.42-1.11,2.12-.41.7-.84,1.39-1.32,2.06l-.39.55h-.01c-.03.05-.09.13-.19.26l-.04.06-.03.04c-2.28,2.96-5.04,5.37-8.1,7.19-3.18,1.88-6.68,3.12-10.29,3.67-3.59.56-7.29.43-10.89-.41-3.48-.81-6.85-2.29-9.95-4.45-2.98-2.09-5.45-4.64-7.36-7.48-1.29-1.91-2.33-3.95-3.11-6.08.79.66,1.61,1.28,2.46,1.89,15.06,10.54,35.07,8.78,48.06-3.19l3.44.84"/>
    <path class="cls-12" d="m37.12,17.98l3.5,3.5.02-.02h.02s3.51-3.49,3.51-3.49l1.32-1.31c.3-.31.3-.8,0-1.11-.15-.15-.34-.22-.55-.22s-.41.08-.55.22c-.03.04-.07.08-.1.13l-1.22,1.22-2.41,2.4-2.41-2.42-1.32-1.31c-.15-.15-.34-.23-.55-.23s-.4.09-.56.23c-.22.23-.33.6-.21.88l1.53,1.53"/>
    <path class="cls-12" d="m22.93,25.89h7.11v-.03h.03v-4.95s0-1.86,0-1.86c0-.43-.35-.79-.79-.79-.21,0-.41.08-.55.23-.15.15-.23.35-.23.56,0,.05.01.1.02.16v5.13h-5.28c-.21,0-.4.08-.55.23-.15.15-.23.34-.23.55,0,.32.19.66.46.78"/>
    <path class="cls-12" d="m25.68,36.48l-.02-.03h.01s-3.5-3.52-3.5-3.52l-1.32-1.32c-.3-.3-.8-.3-1.1,0-.15.15-.23.34-.23.55s.08.4.23.56c.04.03.08.06.13.1l3.63,3.62-2.41,2.42-1.32,1.31c-.15.15-.23.35-.23.56s.08.4.23.55c.22.23.6.33.89.22l1.53-1.53,1.77-1.77,1.73-1.73"/>
    <path class="cls-12" d="m30.08,47.05h-.03v-.02h-6.82c-.43,0-.78.35-.78.78,0,.21.08.41.23.55s.34.22.55.22c.05,0,.1,0,.16-.01h5.13v5.27c0,.2.08.41.22.55.15.15.34.23.56.23.32,0,.66-.19.78-.47v-7.11"/>
    <path class="cls-12" d="m44.18,54.91l-1.77-1.76-1.73-1.74-.03.03-.02-.02-3.51,3.51-1.32,1.31c-.3.31-.3.8,0,1.1.15.15.35.23.56.23s.4-.08.55-.23c.04-.04.07-.07.1-.12l1.22-1.22,2.4-2.41,2.41,2.42,1.32,1.31c.15.15.34.23.55.23s.41-.08.56-.23c.23-.22.33-.6.22-.88l-1.53-1.53"/>
    <path class="cls-12" d="m58.36,47.01h-2.16s-2.5,0-2.5,0h-2.45s0,.03,0,.03h-.02v6.81c0,.43.34.79.78.79.21,0,.41-.08.56-.23.15-.15.22-.35.22-.56,0-.05-.01-.1-.02-.16v-5.13h5.27c.21,0,.41-.08.56-.23.15-.15.22-.34.22-.55,0-.32-.19-.66-.47-.79"/>
    <path class="cls-12" d="m49.97,45.78h5.57c.1-.05.2-.1.27-.18.15-.15.23-.4.23-.6,0-.43-.35-.78-.78-.78h-5.73l-4.58-4.58v-1.41l1-1h6.48l4.06,4.05c.3.31.8.31,1.1,0,.15-.15.23-.34.23-.55s-.08-.41-.23-.56c-.04-.03-.08-.07-.13-.1l-3.63-3.63,3.71-3.72h0s.03-.03.04-.03l.17-.18c.05-.1.07-.21.07-.32,0-.21-.12-.44-.27-.58-.3-.31-.8-.31-1.1,0l-4.06,4.05h-6.47l-1-1v-1.41l1.86-1.86,2.72-2.72h5.73c.43,0,.78-.35.78-.78,0-.21-.08-.41-.23-.56-.14-.15-.34-.22-.55-.22-.05,0-.1,0-.16.02h-5.14v-5.57c-.04-.1-.1-.19-.17-.28-.15-.15-.4-.22-.6-.22-.43,0-.78.35-.78.78v5.74l-2.71,2.71-1.86,1.85h-1.41l-1.01-.99v-6.48l4.06-4.05c.3-.31.3-.8,0-1.1-.15-.15-.34-.23-.56-.23s-.4.09-.55.23c-.04.03-.07.07-.1.12l-3.63,3.63-3.72-3.72h0s-.02-.03-.03-.04l-.18-.18h0c-.1-.05-.21-.07-.32-.07-.21,0-.44.11-.59.27-.3.31-.3.8,0,1.1l4.06,4.05v6.47l-.99.99h-1.42l-4.58-4.58v-5.74c0-.43-.35-.78-.78-.78-.21,0-.41.08-.55.22-.15.15-.23.34-.23.56,0,.05,0,.1.02.16v5.13h-5.56s0,0,0,0c-.1.04-.19.1-.28.18-.15.15-.23.4-.23.6,0,.43.35.78.79.78h5.73l2.71,2.72,1.86,1.86v1.41l-1,1h-6.48l-4.05-4.05c-.31-.31-.8-.31-1.1,0-.15.15-.23.34-.23.55s.08.41.23.56c.04.03.08.06.13.1l3.63,3.63-3.72,3.72h0s-.03.03-.03.04l-.18.17h0c-.05.1-.07.21-.07.32,0,.21.12.44.27.58.31.31.8.31,1.1,0l4.06-4.05h6.47l1,1v1.41l-4.58,4.58h-5.73c-.43,0-.78.35-.78.78,0,.21.08.41.23.56s.34.22.55.22c.05,0,.1,0,.16-.02h5.13v5.57c.04.1.1.19.18.28.15.15.39.22.59.22.43,0,.79-.34.79-.78v-5.74l4.57-4.57h1.42l1,1.01v6.47s0,0,0,0l-4.06,4.06c-.3.3-.3.8,0,1.1.15.15.35.23.56.23s.4-.09.55-.23c.04-.03.07-.07.1-.13l3.63-3.63,3.72,3.72h0s.03.03.03.04l.18.18h0c.1.05.21.06.32.06.21,0,.44-.11.58-.26.3-.31.3-.8,0-1.1l-4.06-4.05v-6.47l1.01-1h1.41l1.86,1.86,2.72,2.72v5.74c0,.43.35.78.78.78.21,0,.4-.08.55-.23.15-.15.23-.34.23-.55,0-.05,0-.1-.02-.16v-5.13"/>
    <path class="cls-12" d="m61.55,40.17s-.08-.07-.13-.1l-1.22-1.23-2.4-2.4,2.41-2.41,1.32-1.31c.15-.15.22-.35.22-.56s-.08-.4-.22-.55c-.23-.23-.6-.33-.89-.22l-1.53,1.53-1.77,1.77-1.73,1.73.02.03h-.02s3.51,3.52,3.51,3.52l1.32,1.31c.3.31.8.31,1.1,0,.15-.15.23-.34.23-.55s-.08-.41-.23-.55"/>
    <path class="cls-12" d="m51.21,25.84h.03v.02h6.82c.43,0,.78-.35.78-.78,0-.2-.08-.41-.23-.55-.15-.15-.34-.23-.55-.23-.05,0-.1,0-.16.02h-1.73s-3.4,0-3.4,0v-5.27c0-.21-.08-.41-.23-.55s-.34-.23-.55-.23c-.32,0-.66.19-.78.46v7.11"/>
    <g class="cls-9">
      <g class="cls-7">
        <g class="cls-6">
          <path class="cls-13" d="m53.64,63.31l-.23-.18-.16.21.23.18.16-.21Z"/>
        </g>
      </g>
    </g>
    <g class="cls-11">
      <path class="cls-5" d="m68.88,26.43c.04.13.08.25.12.38,0,.01,0,.02.01.03-.05-.14-.09-.28-.13-.41ZM38.53,4.09c-13.57,0-25.16,8.52-29.71,20.49C13.24,10.34,26.52,0,42.22,0c17.58,0,32.14,12.98,34.59,29.89l.42.22c1.71.97,3.03,2.54,3.68,4.43.28.82.43,1.69.43,2.61s-.15,1.79-.43,2.61c-.69,2.04-2.18,3.71-4.09,4.65v-6.08l-3.56-2.4-1.78,1.2-1.36.92-.42.28v6.08c-2.68-1.31-4.52-4.07-4.52-7.26s1.84-5.94,4.52-7.26h.05c-.19-1.03-.44-2.05-.74-3.04-3.89-13.16-16.06-22.76-30.48-22.76Z"/>
    </g>
    <g class="cls-8">
      <path class="cls-4" d="m12.46,46.51c-.05-.13-.08-.26-.12-.38,0-.01-.01-.02-.01-.03.04.14.08.28.13.41Zm30.34,22.34c13.58,0,25.16-8.52,29.71-20.49-4.42,14.24-17.7,24.58-33.4,24.58-17.58,0-32.14-12.98-34.6-29.88l-.41-.22c-1.71-.97-3.04-2.54-3.68-4.43-.28-.82-.43-1.7-.43-2.61s.15-1.79.43-2.61c.69-2.04,2.18-3.71,4.09-4.65v6.08l3.56,2.4,1.78-1.2,1.36-.92.42-.28v-6.08c2.68,1.31,4.53,4.07,4.53,7.26s-1.84,5.94-4.53,7.26h-.04c.19,1.03.44,2.05.74,3.04,3.89,13.16,16.06,22.76,30.47,22.76Z"/>
    </g>
    <path class="cls-1" d="m89.8,25.21c0-3.22.69-6.09,2.08-8.6,1.39-2.51,3.32-4.47,5.81-5.88,2.48-1.4,5.3-2.1,8.46-2.1,3.86,0,7.17,1.02,9.92,3.06,2.75,2.03,4.58,4.81,5.5,8.33h-8.71c-.64-1.36-1.56-2.4-2.75-3.1-1.18-.72-2.53-1.08-4.04-1.08-2.45,0-4.43.85-5.94,2.56-1.52,1.7-2.27,3.97-2.27,6.81s.76,5.1,2.27,6.81c1.51,1.7,3.49,2.54,5.94,2.54,1.51,0,2.86-.35,4.04-1.06,1.19-.72,2.11-1.76,2.75-3.13h8.71c-.92,3.53-2.75,6.31-5.5,8.33-2.75,2.02-6.06,3.02-9.92,3.02-3.16,0-5.97-.7-8.46-2.1-2.49-1.4-4.43-3.35-5.81-5.85-1.39-2.5-2.08-5.35-2.08-8.56Z"/>
    <path class="cls-1" d="m134.34,7.23v34.27h-7.92V7.23h7.92Z"/>
    <path class="cls-1" d="m144.06,12.98c-1.39,0-2.53-.41-3.42-1.23-.88-.82-1.31-1.83-1.31-3.04s.44-2.26,1.31-3.08c.89-.82,2.03-1.23,3.42-1.23s2.48.41,3.35,1.23c.89.82,1.33,1.85,1.33,3.08s-.45,2.22-1.33,3.04c-.88.82-1.99,1.23-3.35,1.23Zm3.94,2.69v25.83h-7.92V15.67h7.92Z"/>
    <path class="cls-1" d="m186.71,15.38c3.21,0,5.76.97,7.65,2.92,1.9,1.95,2.85,4.65,2.85,8.1v15.1h-7.88v-14.04c0-1.67-.44-2.95-1.31-3.85-.88-.92-2.09-1.38-3.65-1.38s-2.75.46-3.63,1.38c-.88.91-1.31,2.19-1.31,3.85v14.04h-7.88v-14.04c0-1.67-.45-2.95-1.33-3.85-.88-.92-2.08-1.38-3.63-1.38s-2.76.46-3.65,1.38c-.88.91-1.31,2.19-1.31,3.85v14.04h-7.92V15.67h7.92v3.23c.8-1.08,1.85-1.94,3.15-2.56,1.29-.64,2.76-.96,4.4-.96,1.94,0,3.68.42,5.21,1.25,1.53.83,2.73,2.02,3.6,3.56.89-1.42,2.1-2.57,3.65-3.46,1.54-.9,3.23-1.35,5.06-1.35Z"/>
    <path class="cls-1" d="m201.17,28.55c0-2.67.5-5,1.5-7,1.01-2.01,2.38-3.55,4.1-4.63,1.73-1.08,3.67-1.63,5.79-1.63,1.82,0,3.42.37,4.79,1.1,1.38.74,2.43,1.71,3.17,2.92v-3.65h7.94v25.83h-7.94v-3.67c-.77,1.21-1.83,2.19-3.21,2.94-1.38.73-2.97,1.1-4.79,1.1-2.1,0-4.02-.55-5.75-1.65-1.72-1.09-3.09-2.65-4.1-4.67-1-2.03-1.5-4.36-1.5-7.02Zm19.35.04c0-1.97-.55-3.53-1.65-4.67-1.08-1.15-2.42-1.73-4-1.73s-2.91.56-4,1.69c-1.1,1.13-1.65,2.68-1.65,4.67s.55,3.54,1.65,4.71c1.09,1.16,2.43,1.73,4,1.73s2.92-.57,4-1.71c1.09-1.15,1.65-2.71,1.65-4.69Z"/>
    <path class="cls-1" d="m248.58,34.8v6.71h-4.02c-2.88,0-5.12-.7-6.73-2.1-1.6-1.4-2.4-3.69-2.4-6.88v-10.29h-3.15v-6.56h3.15v-6.31h7.92v6.31h5.19v6.56h-5.19v10.38c0,.78.18,1.34.54,1.69.38.33,1,.5,1.88.5h2.81Z"/>
    <path class="cls-1" d="m256.95,12.98c-1.39,0-2.53-.41-3.42-1.23-.88-.82-1.31-1.83-1.31-3.04s.44-2.26,1.31-3.08c.89-.82,2.03-1.23,3.42-1.23s2.48.41,3.35,1.23c.89.82,1.33,1.85,1.33,3.08s-.45,2.22-1.33,3.04c-.88.82-1.99,1.23-3.35,1.23Zm3.94,2.69v25.83h-7.92V15.67h7.92Z"/>
    <path class="cls-1" d="m274.04,34.98h11.19v6.52h-20.04v-6.29l10.75-13.02h-10.67v-6.52h19.73v6.29l-10.96,13.02Z"/>
    <path class="cls-1" d="m288,28.55c0-2.67.5-5,1.5-7,1.01-2.01,2.38-3.55,4.1-4.63,1.73-1.08,3.67-1.63,5.79-1.63,1.82,0,3.42.37,4.79,1.1,1.38.74,2.43,1.71,3.17,2.92v-3.65h7.94v25.83h-7.94v-3.67c-.77,1.21-1.83,2.19-3.21,2.94-1.38.73-2.97,1.1-4.79,1.1-2.1,0-4.02-.55-5.75-1.65-1.72-1.09-3.09-2.65-4.1-4.67-1-2.03-1.5-4.36-1.5-7.02Zm19.35.04c0-1.97-.55-3.53-1.65-4.67-1.08-1.15-2.42-1.73-4-1.73s-2.91.56-4,1.69c-1.1,1.13-1.65,2.68-1.65,4.67s.55,3.54,1.65,4.71c1.09,1.16,2.43,1.73,4,1.73s2.92-.57,4-1.71c1.09-1.15,1.65-2.71,1.65-4.69Z"/>
    <path class="cls-1" d="m345.79,19.46c0,1.88-.43,3.6-1.29,5.17-.86,1.56-2.19,2.81-3.98,3.77s-4.02,1.44-6.67,1.44h-4.92v11.67h-7.92V8.98h12.83c2.58,0,4.77.45,6.56,1.35,1.79.89,3.13,2.13,4.02,3.71.9,1.57,1.35,3.38,1.35,5.42Zm-12.54,4.06c1.51,0,2.64-.35,3.38-1.06.73-.71,1.1-1.71,1.1-3s-.37-2.31-1.1-3.02c-.74-.71-1.86-1.06-3.38-1.06h-4.31v8.15h4.31Z"/>
    <path class="cls-1" d="m377.77,8.98l-11.25,21.77v10.75h-7.92v-10.75l-11.25-21.77h8.98l6.29,13.63,6.25-13.63h8.9Z"/>
    <path class="cls-1" d="m92.23,58.62v3.71h4.06v1.21h-4.06v3.83h4.54v1.21h-6v-11.17h6v1.21h-4.54Z"/>
    <path class="cls-1" d="m103.56,68.57l-2.08-3.27-2,3.27h-1.52l2.83-4.35-2.83-4.42h1.65l2.08,3.25,1.98-3.25h1.52l-2.81,4.33,2.83,4.44h-1.65Z"/>
    <path class="cls-1" d="m108.1,61.43c.29-.5.72-.92,1.29-1.25.57-.34,1.23-.52,1.98-.52.79,0,1.5.19,2.13.56.64.38,1.14.91,1.5,1.58.36.68.54,1.47.54,2.35s-.18,1.68-.54,2.38c-.36.7-.86,1.24-1.5,1.63-.63.38-1.33.56-2.13.56-.74,0-1.39-.17-1.96-.5-.57-.33-1.01-.76-1.31-1.27v5.79h-1.46v-12.94h1.46v1.63Zm5.96,2.73c0-.67-.14-1.24-.42-1.73-.27-.48-.63-.85-1.08-1.1-.45-.26-.94-.4-1.48-.4s-1.04.14-1.5.4c-.45.27-.81.65-1.08,1.15-.27.49-.4,1.06-.4,1.71s.13,1.23.4,1.73c.28.5.64.89,1.08,1.15.46.25.96.38,1.5.38s1.03-.13,1.48-.38c.46-.26.82-.65,1.08-1.15.28-.5.42-1.08.42-1.75Z"/>
    <path class="cls-1" d="m125.46,63.84c0,.28-.02.58-.04.9h-7.02c.05.86.35,1.54.9,2.02.54.49,1.19.73,1.96.73.63,0,1.15-.15,1.56-.44.43-.29.73-.69.9-1.19h1.58c-.24.85-.71,1.54-1.42,2.06-.71.53-1.58.79-2.63.79-.83,0-1.58-.19-2.23-.56-.66-.38-1.17-.9-1.54-1.58-.38-.69-.56-1.49-.56-2.4s.18-1.69.54-2.38c.36-.69.86-1.22,1.52-1.58.67-.38,1.42-.56,2.27-.56s1.57.18,2.21.54c.64.36,1.13.86,1.48,1.5.34.64.52,1.35.52,2.15Zm-1.5-.29c0-.55-.13-1.03-.38-1.44-.24-.4-.57-.71-1-.92-.42-.21-.89-.31-1.4-.31-.74,0-1.36.24-1.88.71-.52.47-.81,1.13-.9,1.96h5.54Z"/>
    <path class="cls-1" d="m128.84,61.22c.25-.5.61-.89,1.08-1.17.48-.28,1.07-.42,1.75-.42v1.52h-.38c-1.64,0-2.46.89-2.46,2.65v4.77h-1.46v-8.77h1.46v1.42Z"/>
    <path class="cls-1" d="m135.12,61.01v5.17c0,.43.09.74.27.92.18.17.5.25.96.25h1.06v1.23h-1.31c-.81,0-1.42-.19-1.83-.56-.41-.38-.6-.98-.6-1.83v-5.17h-1.13v-1.21h1.13v-2.21h1.46v2.21h2.29v1.21h-2.29Z"/>
    <path class="cls-1" d="m143,68.72c-.82,0-1.56-.19-2.23-.56s-1.2-.9-1.58-1.58c-.38-.69-.56-1.49-.56-2.4s.19-1.69.58-2.38c.39-.69.92-1.22,1.58-1.58.68-.38,1.44-.56,2.27-.56s1.58.19,2.25.56c.67.36,1.19.89,1.58,1.58.39.68.58,1.47.58,2.38s-.2,1.7-.6,2.4c-.39.68-.93,1.21-1.6,1.58-.68.38-1.44.56-2.27.56Zm0-1.29c.51,0,1-.11,1.46-.35.46-.25.82-.61,1.1-1.1.29-.5.44-1.09.44-1.79s-.14-1.3-.42-1.79c-.28-.5-.64-.86-1.08-1.1-.45-.23-.93-.35-1.46-.35s-1.02.12-1.46.35c-.45.24-.81.6-1.08,1.1-.27.49-.4,1.08-.4,1.79s.13,1.31.4,1.81c.26.49.61.85,1.04,1.08.44.24.93.35,1.46.35Z"/>
    <path class="cls-1" d="m152.52,68.72c-.67,0-1.27-.11-1.81-.33-.53-.23-.95-.55-1.27-.96-.31-.42-.47-.9-.5-1.44h1.5c.04.45.24.81.6,1.08.38.28.86.42,1.46.42.55,0,.99-.13,1.31-.38.32-.25.48-.55.48-.92,0-.39-.18-.67-.52-.85-.33-.19-.85-.38-1.56-.56-.66-.17-1.19-.34-1.6-.52-.41-.18-.75-.44-1.04-.79-.29-.34-.44-.8-.44-1.35,0-.46.13-.86.4-1.23.26-.38.64-.67,1.13-.9.5-.22,1.06-.33,1.69-.33.97,0,1.76.25,2.35.75.59.49.92,1.16.96,2h-1.46c-.03-.46-.22-.82-.56-1.1-.33-.28-.78-.42-1.33-.42s-.95.12-1.27.35c-.31.22-.46.52-.46.88,0,.28.09.52.27.71.19.18.43.33.71.44.29.11.69.24,1.19.38.63.18,1.13.35,1.52.52.4.17.74.42,1.02.75.29.32.44.75.46,1.29,0,.47-.14.91-.42,1.29-.27.38-.64.68-1.13.9-.49.22-1.04.33-1.67.33Z"/>
    <path class="cls-1" d="m170.03,63.84c0,.28-.02.58-.04.9h-7.02c.05.86.35,1.54.9,2.02.54.49,1.19.73,1.96.73.63,0,1.15-.15,1.56-.44.43-.29.73-.69.9-1.19h1.58c-.24.85-.71,1.54-1.42,2.06-.71.53-1.58.79-2.63.79-.83,0-1.58-.19-2.23-.56-.66-.38-1.17-.9-1.54-1.58-.38-.69-.56-1.49-.56-2.4s.18-1.69.54-2.38c.36-.69.86-1.22,1.52-1.58.67-.38,1.42-.56,2.27-.56s1.57.18,2.21.54c.64.36,1.13.86,1.48,1.5.34.64.52,1.35.52,2.15Zm-1.5-.29c0-.55-.13-1.03-.38-1.44-.24-.4-.57-.71-1-.92-.42-.21-.89-.31-1.4-.31-.74,0-1.36.24-1.88.71-.52.47-.81,1.13-.9,1.96h5.54Z"/>
    <path class="cls-1" d="m176.23,59.64c1.07,0,1.93.33,2.58.98.67.64,1,1.57,1,2.79v5.17h-1.44v-4.96c0-.88-.22-1.54-.67-2-.43-.47-1.02-.71-1.77-.71s-1.4.24-1.85.73c-.45.47-.67,1.17-.67,2.08v4.85h-1.46v-8.77h1.46v1.25c.29-.44.68-.79,1.17-1.04.5-.25,1.05-.38,1.65-.38Z"/>
    <path class="cls-1" d="m185.93,64.16c0-.89.18-1.67.54-2.35.36-.68.86-1.21,1.5-1.58.64-.38,1.34-.56,2.13-.56s1.42.17,1.98.5c.57.33.99.75,1.27,1.25v-1.6h1.48v8.77h-1.48v-1.63c-.28.52-.71.94-1.29,1.27-.57.33-1.23.5-1.98.5s-1.49-.19-2.13-.56c-.63-.39-1.12-.93-1.48-1.63-.36-.69-.54-1.48-.54-2.38Zm7.42.02c0-.67-.14-1.24-.4-1.73-.27-.48-.63-.86-1.08-1.13-.45-.26-.94-.4-1.48-.4s-1.06.14-1.5.4c-.45.25-.81.62-1.08,1.1-.27.49-.4,1.06-.4,1.73s.13,1.25.4,1.75c.28.5.64.89,1.08,1.15.44.25.94.38,1.5.38s1.03-.13,1.48-.38c.46-.26.82-.65,1.08-1.15.26-.5.4-1.07.4-1.73Z"/>
    <path class="cls-1" d="m198.03,58.39c-.28,0-.52-.09-.71-.29-.18-.19-.27-.43-.27-.71s.09-.51.27-.69c.19-.19.43-.29.71-.29.26,0,.48.1.67.29.19.18.29.41.29.69s-.1.52-.29.71c-.18.2-.41.29-.67.29Zm.71,1.42v8.77h-1.46v-8.77h1.46Z"/>
    <path class="cls-1" d="m202.68,61.22c.25-.5.61-.89,1.08-1.17.48-.28,1.07-.42,1.75-.42v1.52h-.38c-1.64,0-2.46.89-2.46,2.65v4.77h-1.46v-8.77h1.46v1.42Z"/>
    <path class="cls-1" d="m215.19,63.84c0,.28-.02.58-.04.9h-7.02c.05.86.35,1.54.9,2.02.54.49,1.19.73,1.96.73.63,0,1.15-.15,1.56-.44.43-.29.73-.69.9-1.19h1.58c-.24.85-.71,1.54-1.42,2.06-.71.53-1.58.79-2.63.79-.83,0-1.58-.19-2.23-.56-.66-.38-1.17-.9-1.54-1.58-.38-.69-.56-1.49-.56-2.4s.18-1.69.54-2.38c.36-.69.86-1.22,1.52-1.58.67-.38,1.42-.56,2.27-.56s1.57.18,2.21.54c.64.36,1.13.86,1.48,1.5.34.64.52,1.35.52,2.15Zm-1.5-.29c0-.55-.13-1.03-.38-1.44-.24-.4-.57-.71-1-.92-.42-.21-.89-.31-1.4-.31-.74,0-1.36.24-1.88.71-.52.47-.81,1.13-.9,1.96h5.54Z"/>
    <path class="cls-1" d="m218.61,66.55l-1.79,4.31h-.98l1.19-4.31h1.58Z"/>
    <path class="cls-1" d="m232.55,63.84c0,.28-.02.58-.04.9h-7.02c.05.86.35,1.54.9,2.02.54.49,1.19.73,1.96.73.63,0,1.15-.15,1.56-.44.43-.29.73-.69.9-1.19h1.58c-.24.85-.71,1.54-1.42,2.06-.71.53-1.58.79-2.63.79-.83,0-1.58-.19-2.23-.56-.66-.38-1.17-.9-1.54-1.58-.38-.69-.56-1.49-.56-2.4s.18-1.69.54-2.38c.36-.69.86-1.22,1.52-1.58.67-.38,1.42-.56,2.27-.56s1.57.18,2.21.54c.64.36,1.13.86,1.48,1.5.34.64.52,1.35.52,2.15Zm-1.5-.29c0-.55-.13-1.03-.38-1.44-.24-.4-.57-.71-1-.92-.42-.21-.89-.31-1.4-.31-.74,0-1.36.24-1.88.71-.52.47-.81,1.13-.9,1.96h5.54Z"/>
    <path class="cls-1" d="m239.05,68.57l-2.08-3.27-2,3.27h-1.52l2.83-4.35-2.83-4.42h1.65l2.08,3.25,1.98-3.25h1.52l-2.81,4.33,2.83,4.44h-1.65Z"/>
    <path class="cls-1" d="m243.59,61.43c.29-.5.72-.92,1.29-1.25.57-.34,1.23-.52,1.98-.52.79,0,1.5.19,2.13.56.64.38,1.14.91,1.5,1.58.36.68.54,1.47.54,2.35s-.18,1.68-.54,2.38c-.36.7-.86,1.24-1.5,1.63-.63.38-1.33.56-2.13.56-.74,0-1.39-.17-1.96-.5-.57-.33-1.01-.76-1.31-1.27v5.79h-1.46v-12.94h1.46v1.63Zm5.96,2.73c0-.67-.14-1.24-.42-1.73-.27-.48-.63-.85-1.08-1.1-.45-.26-.94-.4-1.48-.4s-1.04.14-1.5.4c-.45.27-.81.65-1.08,1.15-.27.49-.4,1.06-.4,1.71s.13,1.23.4,1.73c.28.5.64.89,1.08,1.15.46.25.96.38,1.5.38s1.03-.13,1.48-.38c.46-.26.82-.65,1.08-1.15.28-.5.42-1.08.42-1.75Z"/>
    <path class="cls-1" d="m260.95,63.84c0,.28-.02.58-.04.9h-7.02c.05.86.35,1.54.9,2.02.54.49,1.19.73,1.96.73.63,0,1.15-.15,1.56-.44.43-.29.73-.69.9-1.19h1.58c-.24.85-.71,1.54-1.42,2.06-.71.53-1.58.79-2.63.79-.83,0-1.58-.19-2.23-.56-.66-.38-1.17-.9-1.54-1.58-.38-.69-.56-1.49-.56-2.4s.18-1.69.54-2.38c.36-.69.86-1.22,1.52-1.58.67-.38,1.42-.56,2.27-.56s1.57.18,2.21.54c.64.36,1.13.86,1.48,1.5.34.64.52,1.35.52,2.15Zm-1.5-.29c0-.55-.13-1.03-.38-1.44-.24-.4-.57-.71-1-.92-.42-.21-.89-.31-1.4-.31-.74,0-1.36.24-1.88.71-.52.47-.81,1.13-.9,1.96h5.54Z"/>
    <path class="cls-1" d="m264.33,61.22c.25-.5.61-.89,1.08-1.17.48-.28,1.07-.42,1.75-.42v1.52h-.38c-1.64,0-2.46.89-2.46,2.65v4.77h-1.46v-8.77h1.46v1.42Z"/>
    <path class="cls-1" d="m270.61,61.01v5.17c0,.43.09.74.27.92.18.17.5.25.96.25h1.06v1.23h-1.31c-.81,0-1.42-.19-1.83-.56-.41-.38-.6-.98-.6-1.83v-5.17h-1.13v-1.21h1.13v-2.21h1.46v2.21h2.29v1.21h-2.29Z"/>
    <path class="cls-1" d="m278.49,68.72c-.82,0-1.56-.19-2.23-.56s-1.2-.9-1.58-1.58c-.38-.69-.56-1.49-.56-2.4s.19-1.69.58-2.38c.39-.69.92-1.22,1.58-1.58.68-.38,1.44-.56,2.27-.56s1.58.19,2.25.56c.67.36,1.19.89,1.58,1.58.39.68.58,1.47.58,2.38s-.2,1.7-.6,2.4c-.39.68-.93,1.21-1.6,1.58-.68.38-1.44.56-2.27.56Zm0-1.29c.51,0,1-.11,1.46-.35.46-.25.82-.61,1.1-1.1.29-.5.44-1.09.44-1.79s-.14-1.3-.42-1.79c-.28-.5-.64-.86-1.08-1.1-.45-.23-.93-.35-1.46-.35s-1.02.12-1.46.35c-.45.24-.81.6-1.08,1.1-.27.49-.4,1.08-.4,1.79s.13,1.31.4,1.81c.26.49.61.85,1.04,1.08.44.24.93.35,1.46.35Z"/>
    <path class="cls-1" d="m288,68.72c-.67,0-1.27-.11-1.81-.33-.53-.23-.95-.55-1.27-.96-.31-.42-.47-.9-.5-1.44h1.5c.04.45.24.81.6,1.08.38.28.86.42,1.46.42.55,0,.99-.13,1.31-.38.32-.25.48-.55.48-.92,0-.39-.18-.67-.52-.85-.33-.19-.85-.38-1.56-.56-.66-.17-1.19-.34-1.6-.52-.41-.18-.75-.44-1.04-.79-.29-.34-.44-.8-.44-1.35,0-.46.13-.86.4-1.23.26-.38.64-.67,1.13-.9.5-.22,1.06-.33,1.69-.33.97,0,1.76.25,2.35.75.59.49.92,1.16.96,2h-1.46c-.03-.46-.22-.82-.56-1.1-.33-.28-.78-.42-1.33-.42s-.95.12-1.27.35c-.31.22-.46.52-.46.88,0,.28.09.52.27.71.19.18.43.33.71.44.29.11.69.24,1.19.38.63.18,1.13.35,1.52.52.4.17.74.42,1.02.75.29.32.44.75.46,1.29,0,.47-.14.91-.42,1.29-.27.38-.64.68-1.13.9-.49.22-1.04.33-1.67.33Z"/>
    <path class="cls-1" d="m305.52,63.84c0,.28-.02.58-.04.9h-7.02c.05.86.35,1.54.9,2.02.54.49,1.19.73,1.96.73.63,0,1.15-.15,1.56-.44.43-.29.73-.69.9-1.19h1.58c-.24.85-.71,1.54-1.42,2.06-.71.53-1.58.79-2.63.79-.83,0-1.58-.19-2.23-.56-.66-.38-1.17-.9-1.54-1.58-.38-.69-.56-1.49-.56-2.4s.18-1.69.54-2.38c.36-.69.86-1.22,1.52-1.58.67-.38,1.42-.56,2.27-.56s1.57.18,2.21.54c.64.36,1.13.86,1.48,1.5.34.64.52,1.35.52,2.15Zm-1.5-.29c0-.55-.13-1.03-.38-1.44-.24-.4-.57-.71-1-.92-.42-.21-.89-.31-1.4-.31-.74,0-1.36.24-1.88.71-.52.47-.81,1.13-.9,1.96h5.54Z"/>
    <path class="cls-1" d="m311.71,59.64c1.07,0,1.93.33,2.58.98.67.64,1,1.57,1,2.79v5.17h-1.44v-4.96c0-.88-.22-1.54-.67-2-.43-.47-1.02-.71-1.77-.71s-1.4.24-1.85.73c-.45.47-.67,1.17-.67,2.08v4.85h-1.46v-8.77h1.46v1.25c.29-.44.68-.79,1.17-1.04.5-.25,1.05-.38,1.65-.38Z"/>
    <path class="cls-1" d="m321.41,64.18c0-.9.18-1.69.54-2.38.36-.68.86-1.21,1.5-1.58.65-.38,1.4-.56,2.23-.56,1.08,0,1.97.27,2.67.79.69.52,1.15,1.24,1.38,2.17h-1.56c-.16-.53-.45-.94-.88-1.25-.43-.32-.97-.48-1.6-.48-.83,0-1.51.29-2.02.88-.52.57-.77,1.38-.77,2.42s.26,1.88.77,2.46c.51.57,1.19.85,2.02.85.64,0,1.17-.15,1.6-.44.43-.3.72-.73.88-1.29h1.56c-.24.89-.71,1.6-1.42,2.15-.7.54-1.57.81-2.63.81-.83,0-1.58-.19-2.23-.56-.64-.38-1.14-.9-1.5-1.58-.36-.68-.54-1.48-.54-2.4Z"/>
    <path class="cls-1" d="m335.5,68.72c-.82,0-1.56-.19-2.23-.56s-1.2-.9-1.58-1.58c-.38-.69-.56-1.49-.56-2.4s.19-1.69.58-2.38c.39-.69.92-1.22,1.58-1.58.68-.38,1.44-.56,2.27-.56s1.58.19,2.25.56c.67.36,1.19.89,1.58,1.58.39.68.58,1.47.58,2.38s-.2,1.7-.6,2.4c-.39.68-.93,1.21-1.6,1.58-.68.38-1.44.56-2.27.56Zm0-1.29c.51,0,1-.11,1.46-.35.46-.25.82-.61,1.1-1.1.29-.5.44-1.09.44-1.79s-.14-1.3-.42-1.79c-.28-.5-.64-.86-1.08-1.1-.45-.23-.93-.35-1.46-.35s-1.02.12-1.46.35c-.45.24-.81.6-1.08,1.1-.27.49-.4,1.08-.4,1.79s.13,1.31.4,1.81c.26.49.61.85,1.04,1.08.44.24.93.35,1.46.35Z"/>
    <path class="cls-1" d="m346.18,59.64c1.07,0,1.93.33,2.58.98.67.64,1,1.57,1,2.79v5.17h-1.44v-4.96c0-.88-.22-1.54-.67-2-.43-.47-1.02-.71-1.77-.71s-1.4.24-1.85.73c-.45.47-.67,1.17-.67,2.08v4.85h-1.46v-8.77h1.46v1.25c.29-.44.68-.79,1.17-1.04.5-.25,1.05-.38,1.65-.38Z"/>
    <path class="cls-1" d="m355.71,61.01h-1.83v7.56h-1.46v-7.56h-1.13v-1.21h1.13v-.63c0-.97.25-1.69.75-2.15.51-.46,1.33-.69,2.46-.69v1.23c-.64,0-1.09.13-1.35.38-.27.25-.4.66-.4,1.23v.63h1.83v1.21Z"/>
    <path class="cls-1" d="m361.24,68.72c-.82,0-1.56-.19-2.23-.56s-1.2-.9-1.58-1.58c-.38-.69-.56-1.49-.56-2.4s.19-1.69.58-2.38c.39-.69.92-1.22,1.58-1.58.68-.38,1.44-.56,2.27-.56s1.58.19,2.25.56c.67.36,1.19.89,1.58,1.58.39.68.58,1.47.58,2.38s-.2,1.7-.6,2.4c-.39.68-.93,1.21-1.6,1.58-.68.38-1.44.56-2.27.56Zm0-1.29c.51,0,1-.11,1.46-.35.46-.25.82-.61,1.1-1.1.29-.5.44-1.09.44-1.79s-.14-1.3-.42-1.79c-.28-.5-.64-.86-1.08-1.1-.45-.23-.93-.35-1.46-.35s-1.02.12-1.46.35c-.45.24-.81.6-1.08,1.1-.27.49-.4,1.08-.4,1.79s.13,1.31.4,1.81c.26.49.61.85,1.04,1.08.44.24.93.35,1.46.35Z"/>
    <path class="cls-1" d="m369.11,61.22c.25-.5.61-.89,1.08-1.17.48-.28,1.07-.42,1.75-.42v1.52h-.38c-1.64,0-2.46.89-2.46,2.65v4.77h-1.46v-8.77h1.46v1.42Z"/>
    <path class="cls-1" d="m375.39,61.01v5.17c0,.43.09.74.27.92.18.17.5.25.96.25h1.06v1.23h-1.31c-.81,0-1.42-.19-1.83-.56-.41-.38-.6-.98-.6-1.83v-5.17h-1.13v-1.21h1.13v-2.21h1.46v2.21h2.29v1.21h-2.29Z"/>
  </g>
</svg>